<svg xmlns="http://www.w3.org/2000/svg" version="1.1" xmlns:xlink="http://www.w3.org/1999/xlink" xmlns:svgjs="http://svgjs.dev/svgjs" width="1000" height="625" viewBox="0 0 1000 625"><g transform="matrix(1,0,0,1,0,0)"><svg viewBox="0 0 512 320" data-background-color="#ffffff" preserveAspectRatio="xMidYMid meet" height="625" width="1000" xmlns="http://www.w3.org/2000/svg" xmlns:xlink="http://www.w3.org/1999/xlink"><g id="tight-bounds" transform="matrix(1,0,0,1,0,0)"><svg viewBox="0 0 512 320" height="320" width="512"><g><svg></svg></g><g><svg viewBox="0 0 512 320" height="320" width="512"><g><path xmlns="http://www.w3.org/2000/svg" d="M96 320l0-320 320 0 0 320zM406.549 310.549l0-301.098-301.098 0 0 301.098z" fill="#7a26c1" fill-rule="nonzero" stroke="none" stroke-width="1" stroke-linecap="butt" stroke-linejoin="miter" stroke-miterlimit="10" stroke-dasharray="" stroke-dashoffset="0" font-family="none" font-weight="none" font-size="none" text-anchor="none" style="mix-blend-mode: normal" data-fill-palette-color="tertiary"></path></g><g transform="matrix(1,0,0,1,140.8,107.60133779264214)"><svg viewBox="0 0 230.4 104.7973244147157" height="104.7973244147157" width="230.4"><g><svg viewBox="0 0 230.4 104.7973244147157" height="104.7973244147157" width="230.4"><g><svg viewBox="0 0 230.4 104.7973244147157" height="104.7973244147157" width="230.4"><g><svg viewBox="0 0 230.4 104.7973244147157" height="104.7973244147157" width="230.4"><g id="textblocktransform"><svg viewBox="0 0 230.4 104.7973244147157" height="104.7973244147157" width="230.4" id="textblock"><g><svg viewBox="0 0 230.4 104.7973244147157" height="104.7973244147157" width="230.4"><g transform="matrix(1,0,0,1,0,0)"><svg width="230.4" viewBox="3.6500000953674316 -33.5 74.75 34" height="104.7973244147157" data-palette-color="#7a26c1"><path d="M30.1-33L41.85-33 41.85 0 34.25 0 34.25-15.15 34.5-25.3 34.4-25.3 26.25 0 19.3 0 11.15-25.3 11.05-25.3 11.3-15.15 11.3 0 3.65 0 3.65-33 15.9-33 21.1-16.2 22.95-9.2 23.05-9.2 24.95-16.15 30.1-33ZM70.6-11.65L78.4-9.45Q77.45-6 75.35-3.78 73.25-1.55 70.35-0.53 67.45 0.5 63.95 0.5L63.95 0.5Q58.95 0.5 55.3-1.53 51.65-3.55 49.7-7.35 47.75-11.15 47.75-16.5L47.75-16.5Q47.75-21.85 49.7-25.65 51.65-29.45 55.3-31.48 58.95-33.5 63.9-33.5L63.9-33.5Q67.35-33.5 70.25-32.52 73.15-31.55 75.15-29.55 77.15-27.55 78-24.4L78-24.4 70.45-21.35Q69.75-24.45 68.17-25.6 66.6-26.75 64.2-26.75L64.2-26.75Q61.85-26.75 60.12-25.6 58.4-24.45 57.47-22.18 56.55-19.9 56.55-16.5L56.55-16.5Q56.55-13.15 57.4-10.85 58.25-8.55 59.97-7.4 61.7-6.25 64.25-6.25L64.25-6.25Q66.65-6.25 68.32-7.58 70-8.9 70.6-11.65L70.6-11.65Z" opacity="1" transform="matrix(1,0,0,1,0,0)" fill="#7a26c1" class="undefined-text-0" data-fill-palette-color="primary" id="text-0"></path></svg></g></svg></g></svg></g></svg></g></svg></g></svg></g></svg></g></svg></g><defs></defs></svg><rect width="512" height="320" fill="none" stroke="none" visibility="hidden"></rect></g></svg></g></svg>